<svg xmlns="http://www.w3.org/2000/svg" width="430" height="292" viewBox="0 0 430 292">
  <rect x="0" y="0" width="430" height="292" rx="12" fill="#0D1117" stroke="#30363D" stroke-width="1.5"/>
  <text x="20" y="32" font-family="Arial, Helvetica, sans-serif" font-size="16" font-weight="bold" fill="#F0F6FC">Top Languages</text>
  <text x="20" y="70" font-family="Arial, Helvetica, sans-serif" font-size="13" fill="#C9D1D9">Dart</text>
  <rect x="130" y="57" width="99.87209152294525" height="16" rx="3" fill="#00B4AB"/>
  <text x="237.87209152294525" y="70" font-family="Arial, Helvetica, sans-serif" font-size="12" fill="#8B949E">43.4%</text>
  <text x="20" y="106" font-family="Arial, Helvetica, sans-serif" font-size="13" fill="#C9D1D9">TypeScript</text>
  <rect x="130" y="93" width="50.973721560362996" height="16" rx="3" fill="#3178C6"/>
  <text x="188.973721560363" y="106" font-family="Arial, Helvetica, sans-serif" font-size="12" fill="#8B949E">22.2%</text>
  <text x="20" y="142" font-family="Arial, Helvetica, sans-serif" font-size="13" fill="#C9D1D9">Kotlin</text>
  <rect x="130" y="129" width="36.09608188895101" height="16" rx="3" fill="#A97BFF"/>
  <text x="174.096081888951" y="142" font-family="Arial, Helvetica, sans-serif" font-size="12" fill="#8B949E">15.7%</text>
  <text x="20" y="178" font-family="Arial, Helvetica, sans-serif" font-size="13" fill="#C9D1D9">HTML</text>
  <rect x="130" y="165" width="30.507074964517656" height="16" rx="3" fill="#E34C26"/>
  <text x="168.50707496451764" y="178" font-family="Arial, Helvetica, sans-serif" font-size="12" fill="#8B949E">13.3%</text>
  <text x="20" y="214" font-family="Arial, Helvetica, sans-serif" font-size="13" fill="#C9D1D9">CSS</text>
  <rect x="130" y="201" width="9.532966324029074" height="16" rx="3" fill="#563D7C"/>
  <text x="147.53296632402908" y="214" font-family="Arial, Helvetica, sans-serif" font-size="12" fill="#8B949E">4.1%</text>
  <text x="20" y="250" font-family="Arial, Helvetica, sans-serif" font-size="13" fill="#C9D1D9">Python</text>
  <rect x="130" y="237" width="3.0180637391940133" height="16" rx="3" fill="#3572A5"/>
  <text x="141.01806373919402" y="250" font-family="Arial, Helvetica, sans-serif" font-size="12" fill="#8B949E">1.3%</text>
</svg>